<?xml version="1.0" encoding="utf-8"?>
<!-- Generator: Adobe Illustrator 23.0.1, SVG Export Plug-In . SVG Version: 6.00 Build 0)  -->
<svg version="1.1" id="Layer_1" xmlns="http://www.w3.org/2000/svg" xmlns:xlink="http://www.w3.org/1999/xlink" x="0px" y="0px"
	 viewBox="0 0 265.646 58.25" style="enable-background:new 0 0 265.646 58.25;" xml:space="preserve">
<style type="text/css">
	.st0{fill:none;stroke:#000000;stroke-miterlimit:10;}
	.st1{fill:none;stroke:#000000;stroke-width:5;stroke-linecap:round;stroke-miterlimit:10;}
	.st2{display:none;opacity:0.2;fill:url(#SVGID_1_);}
	.st3{fill:url(#SVGID_2_);}
	.st4{fill:url(#SVGID_3_);}
	.st5{fill:url(#SVGID_4_);}
	.st6{fill:url(#SVGID_5_);}
	.st7{fill:url(#SVGID_6_);}
	.st8{fill:url(#SVGID_7_);}
	.st9{fill:url(#SVGID_8_);}
	.st10{fill:url(#SVGID_9_);}
	.st11{opacity:0.2;fill:url(#SVGID_10_);}
	.st12{fill:#1B2735;}
	.st13{fill:url(#SVGID_11_);}
	.st14{fill:url(#SVGID_12_);}
	.st15{fill:url(#SVGID_13_);}
	.st16{fill:#380BF7;}
	.st17{fill:url(#SVGID_14_);}
	.st18{fill:#0025FF;}
	.st19{fill:#0F0F0F;}
	.st20{fill:#FFFFFF;}
	.st21{stroke:#000000;stroke-miterlimit:10;}
	.st22{fill:none;stroke:#000000;stroke-width:1.9949;stroke-miterlimit:10;}
	.st23{stroke:#000000;stroke-width:1.9949;stroke-miterlimit:10;}
	.st24{fill:none;stroke:#000000;stroke-width:3.8354;stroke-miterlimit:10;}
	.st25{fill:none;stroke:#000000;stroke-width:7.3327;stroke-miterlimit:10;}
	.st26{stroke:#000000;stroke-width:7.3327;stroke-miterlimit:10;}
	.st27{fill:none;stroke:#000000;stroke-width:3;stroke-miterlimit:10;}
</style>
<g>
	<path d="M117.201,56.138c0,0.305,0.083,0.533,0.249,0.686s0.384,0.229,0.652,0.229s0.488-0.076,0.659-0.229
		c0.17-0.152,0.255-0.381,0.255-0.686v-0.215l1.144-0.296v0.538c0,0.322-0.057,0.611-0.168,0.867
		c-0.112,0.255-0.263,0.475-0.451,0.658c-0.188,0.185-0.41,0.323-0.665,0.417c-0.256,0.095-0.531,0.142-0.827,0.142
		c-0.287,0-0.556-0.047-0.807-0.142c-0.251-0.094-0.471-0.232-0.659-0.417c-0.188-0.184-0.336-0.403-0.443-0.658
		c-0.107-0.256-0.161-0.545-0.161-0.867v-6.737c0-0.322,0.054-0.611,0.161-0.867c0.107-0.255,0.255-0.475,0.443-0.658
		c0.188-0.185,0.412-0.323,0.673-0.417c0.26-0.095,0.546-0.142,0.86-0.142c0.627,0,1.125,0.187,1.492,0.559s0.552,0.88,0.552,1.525
		v0.35h-1.144v-0.322c0-0.305-0.078-0.533-0.235-0.686c-0.156-0.152-0.374-0.229-0.651-0.229c-0.287,0-0.514,0.076-0.68,0.229
		s-0.249,0.381-0.249,0.686V56.138z"/>
	<path d="M128.886,47.533c0.646,0,1.153,0.184,1.525,0.551c0.372,0.368,0.559,0.879,0.559,1.533v1.466
		c0,0.421-0.063,0.748-0.188,0.981c-0.126,0.233-0.31,0.403-0.551,0.511c0.26,0.107,0.461,0.282,0.604,0.524
		s0.215,0.578,0.215,1.009v3.953h-1.224v-3.993c0-0.332-0.064-0.567-0.194-0.706s-0.384-0.209-0.76-0.209h-0.914v4.908h-1.211
		V47.533H128.886z M127.959,52.091h0.833c0.368,0,0.621-0.074,0.76-0.223c0.139-0.147,0.209-0.392,0.209-0.732v-1.371
		c0-0.709-0.323-1.062-0.969-1.062h-0.833V52.091z"/>
	<path d="M141.27,47.533v1.196h-2.246v3.308h1.587v1.197h-1.587v3.631h2.246v1.196h-3.483V47.533H141.27z"/>
	<path d="M150.507,47.533l1.829,10.528h-1.197l-0.241-1.52h-1.964l-0.229,1.52h-1.196l1.774-10.528H150.507z M149.096,55.506h1.64
		l-0.833-5.271L149.096,55.506z"/>
	<path d="M161.519,47.533v1.196h-1.183v9.332h-1.237v-9.332h-1.184v-1.196H161.519z"/>
	<path d="M169.252,47.533v10.528h-1.237V47.533H169.252z"/>
	<path d="M176.929,47.533l1.196,7.825l1.224-7.825h1.197l-1.815,10.528h-1.224l-1.788-10.528H176.929z"/>
	<path d="M190.497,47.533v1.196h-2.246v3.308h1.587v1.197h-1.587v3.631h2.246v1.196h-3.483V47.533H190.497z"/>
	<path d="M207.841,47.533l1.829,10.528h-1.197l-0.241-1.52h-1.964l-0.229,1.52h-1.196l1.774-10.528H207.841z M206.43,55.506h1.64
		l-0.833-5.271L206.43,55.506z"/>
	<path d="M216.999,56.138c0,0.305,0.083,0.533,0.249,0.686c0.165,0.152,0.383,0.229,0.651,0.229c0.27,0,0.498-0.076,0.687-0.229
		c0.188-0.152,0.282-0.381,0.282-0.686v-2.797h-1.049v-1.116h2.124v5.836h-0.766l-0.055-0.457c-0.17,0.188-0.376,0.343-0.618,0.464
		s-0.52,0.182-0.834,0.182c-0.537,0-0.983-0.187-1.338-0.559c-0.354-0.371-0.53-0.881-0.53-1.525v-6.737
		c0-0.322,0.051-0.611,0.154-0.867c0.103-0.255,0.249-0.475,0.437-0.658c0.188-0.185,0.412-0.323,0.673-0.417
		c0.26-0.095,0.547-0.142,0.86-0.142c0.618,0,1.116,0.187,1.492,0.559c0.377,0.372,0.565,0.88,0.565,1.525v0.35h-1.144v-0.322
		c0-0.305-0.083-0.533-0.248-0.686c-0.166-0.152-0.384-0.229-0.652-0.229c-0.287,0-0.516,0.076-0.686,0.229
		c-0.171,0.152-0.256,0.381-0.256,0.686V56.138z"/>
	<path d="M230.243,47.533v1.196h-2.246v3.308h1.587v1.197h-1.587v3.631h2.246v1.196h-3.483V47.533H230.243z"/>
	<path d="M238.203,47.533l1.789,7.261v-7.261h1.075v10.528h-1.103l-2.03-7.745v7.745h-1.076V47.533H238.203z"/>
	<path d="M249.067,56.138c0,0.305,0.083,0.533,0.249,0.686s0.384,0.229,0.652,0.229s0.488-0.076,0.659-0.229
		c0.17-0.152,0.255-0.381,0.255-0.686v-0.215l1.144-0.296v0.538c0,0.322-0.057,0.611-0.168,0.867
		c-0.112,0.255-0.263,0.475-0.451,0.658c-0.188,0.185-0.41,0.323-0.665,0.417c-0.256,0.095-0.531,0.142-0.827,0.142
		c-0.287,0-0.556-0.047-0.807-0.142c-0.251-0.094-0.471-0.232-0.659-0.417c-0.188-0.184-0.336-0.403-0.443-0.658
		c-0.107-0.256-0.161-0.545-0.161-0.867v-6.737c0-0.322,0.054-0.611,0.161-0.867c0.107-0.255,0.255-0.475,0.443-0.658
		c0.188-0.185,0.412-0.323,0.673-0.417c0.26-0.095,0.546-0.142,0.86-0.142c0.627,0,1.125,0.187,1.492,0.559s0.552,0.88,0.552,1.525
		v0.35h-1.144v-0.322c0-0.305-0.078-0.533-0.235-0.686c-0.156-0.152-0.374-0.229-0.651-0.229c-0.287,0-0.514,0.076-0.68,0.229
		s-0.249,0.381-0.249,0.686V56.138z"/>
	<path d="M259.193,47.533l1.357,4.088l1.385-4.088h1.197l-1.977,5.607v4.921h-1.237V53.14l-1.977-5.607H259.193z"/>
</g>
<g>
	<g>
		<path d="M76.483,38.731V0h6.205v38.731H76.483z"/>
		<path d="M92.639,25.678c0,5.243,3.37,8.184,7.275,8.184c4.066,0,5.938-2.835,6.526-4.814l5.457,1.979
			c-1.231,4.066-5.136,8.506-11.983,8.506c-7.65,0-13.481-5.938-13.481-13.856c0-8.024,5.831-13.802,13.32-13.802
			c7.008,0,10.86,4.387,11.93,8.559l-5.564,2.033c-0.589-2.301-2.354-4.869-6.313-4.869C96.009,17.6,92.639,20.435,92.639,25.678z"
			/>
		<path d="M122.008,38.731h-6.205V0h6.205v15.193c1.766-2.301,4.708-3.263,7.436-3.263c6.419,0,9.522,4.6,9.522,10.324v16.477
			h-6.205V23.324c0-3.21-1.444-5.777-5.35-5.777c-3.424,0-5.296,2.568-5.403,5.884V38.731z"/>
		<path d="M166.624,31.294c-1.391,4.548-5.51,8.239-11.769,8.239c-7.061,0-13.32-5.136-13.32-13.963
			c0-8.238,6.098-13.695,12.678-13.695c8.024,0,12.732,5.296,12.732,13.535c0,1.016-0.107,1.872-0.16,1.979H147.74
			c0.16,3.959,3.263,6.794,7.114,6.794c3.745,0,5.671-1.98,6.526-4.548L166.624,31.294z M160.685,22.843
			c-0.106-3.05-2.14-5.777-6.419-5.777c-3.905,0-6.152,2.996-6.366,5.777H160.685z"/>
		<path d="M170.102,38.731V12.678h5.938v3.318c1.498-2.676,4.762-4.066,7.703-4.066c3.424,0,6.419,1.551,7.81,4.6
			c2.033-3.424,5.082-4.6,8.452-4.6c4.708,0,9.201,2.996,9.201,9.896v16.905h-5.991V22.843c0-3.05-1.552-5.35-5.029-5.35
			c-3.263,0-5.403,2.568-5.403,5.777v15.46h-6.099V22.843c0-2.996-1.498-5.35-5.028-5.35c-3.318,0-5.403,2.46-5.403,5.777v15.46
			H170.102z"/>
		<path d="M237.185,31.294c-1.391,4.548-5.51,8.239-11.769,8.239c-7.061,0-13.321-5.136-13.321-13.963
			c0-8.238,6.099-13.695,12.679-13.695c8.024,0,12.732,5.296,12.732,13.535c0,1.016-0.107,1.872-0.161,1.979h-19.044
			c0.161,3.959,3.264,6.794,7.115,6.794c3.745,0,5.671-1.98,6.526-4.548L237.185,31.294z M231.248,22.843
			c-0.108-3.05-2.14-5.777-6.419-5.777c-3.906,0-6.152,2.996-6.366,5.777H231.248z"/>
		<path d="M265.325,31.294c-1.391,4.548-5.51,8.239-11.769,8.239c-7.061,0-13.321-5.136-13.321-13.963
			c0-8.238,6.099-13.695,12.679-13.695c8.024,0,12.732,5.296,12.732,13.535c0,1.016-0.107,1.872-0.161,1.979h-19.044
			c0.161,3.959,3.264,6.794,7.115,6.794c3.745,0,5.671-1.98,6.526-4.548L265.325,31.294z M259.387,22.843
			c-0.108-3.05-2.14-5.777-6.419-5.777c-3.906,0-6.152,2.996-6.366,5.777H259.387z"/>
	</g>
	<path d="M74.07,38.727L59.311,0.802H44.93l4.242,6.95l0,0L37.11,38.727H74.07z M55.454,7.753L59.708,19.1h-8.486L55.454,7.753z
		 M46.03,33.021l2.651-7.109l12.409-3.127l3.838,10.236H46.03z"/>
	<polygon points="42.329,7.752 30.269,38.732 0.003,38.732 0.003,0.802 38.089,0.802 	"/>
</g>
</svg>
