<?xml version="1.0" encoding="utf-8"?>
<!-- Generator: Adobe Illustrator 23.0.1, SVG Export Plug-In . SVG Version: 6.00 Build 0)  -->
<svg version="1.1" id="Layer_1" xmlns="http://www.w3.org/2000/svg" xmlns:xlink="http://www.w3.org/1999/xlink" x="0px" y="0px"
	 viewBox="0 0 1296.89 1071.45" style="enable-background:new 0 0 1296.89 1071.45;" xml:space="preserve">
<style type="text/css">
	.st0{fill:url(#SVGID_1_);}
	.st1{opacity:0.189;fill:#FFFFFF;enable-background:new    ;}
</style>
<g id="Group_144" transform="translate(-616.946)">
	<linearGradient id="SVGID_1_" gradientUnits="userSpaceOnUse" x1="1265.391" y1="1071.45" x2="1265.391" y2="-9.094947e-13">
		<stop  offset="0" style="stop-color:#F7F7F7"/>
		<stop  offset="1" style="stop-color:#D8D8D8"/>
	</linearGradient>
	<path class="st0" d="M1913.836,0v1071.45h-1296.8c-9.94-385.24,807.55-771.08,840.28-1071.45H1913.836z"/>
	<path id="watermark" class="st1" d="M1846.176,1011.09c-0.04,23.53,9.42,44.87,24.76,60.36h18.18
		c-9.41-12.38-14.55-28.36-14.55-45.73v-0.01c0-27.87,15.97-52.02,39.27-63.78v-34.41
		C1875.226,935.74,1846.246,970.01,1846.176,1011.09z M1751.906,843.27c-57.41,62.89-88.75,146.24-88.62,228.18h17.28
		c8.22-77.1,45.46-148.85,101.18-198.33c37.96-34.15,83.96-57.46,132.09-68.64v-62.19
		C1851.206,760.65,1794.396,795.98,1751.906,843.27z M1633.496,724.87c-88.63,93.89-137.96,220.79-137.75,346.58h15.61
		c8.23-121.55,63.75-237.2,150.92-317.8c69.86-65.55,159.08-107.43,251.56-121.03v-62.15
		C1806.346,591.4,1706.636,646.17,1633.496,724.87z M1735.376,456.81c-81.49,36.52-155.01,88.68-216.39,153.54
		c-118.02,124.69-183.39,289.84-182.98,461.1h14.59c4.46-78.64,23.3-155.85,55.59-227.79c34.3-76.14,83.23-144.81,144-202.11
		c60.13-56.51,130.78-100.65,207.94-129.92c50.2-18.96,102.55-31.3,155.71-36.82v-70.24
		C1852.396,413.84,1792.346,431.37,1735.376,456.81z M1633.496,724.87c-88.63,93.89-137.96,220.79-137.75,346.58h15.61
		c8.23-121.55,63.75-237.2,150.92-317.8c69.86-65.55,159.08-107.43,251.56-121.03v-62.15
		C1806.346,591.4,1706.636,646.17,1633.496,724.87z"/>
</g>
</svg>
